<svg width="16" height="14" viewBox="0 0 16 14" fill="none" xmlns="http://www.w3.org/2000/svg">
<path d="M15 0.714233H1.00003C0.921463 0.714233 0.857178 0.778519 0.857178 0.857091V1.99995C0.857178 2.07852 0.921463 2.1428 1.00003 2.1428H15C15.0786 2.1428 15.1429 2.07852 15.1429 1.99995V0.857091C15.1429 0.778519 15.0786 0.714233 15 0.714233ZM15 11.8571H1.00003C0.921463 11.8571 0.857178 11.9214 0.857178 11.9999V13.1428C0.857178 13.2214 0.921463 13.2857 1.00003 13.2857H15C15.0786 13.2857 15.1429 13.2214 15.1429 13.1428V11.9999C15.1429 11.9214 15.0786 11.8571 15 11.8571ZM15 6.28566H1.00003C0.921463 6.28566 0.857178 6.34995 0.857178 6.42852V7.57138C0.857178 7.64995 0.921463 7.71423 1.00003 7.71423H15C15.0786 7.71423 15.1429 7.64995 15.1429 7.57138V6.42852C15.1429 6.34995 15.0786 6.28566 15 6.28566Z" fill="#FEFEFE"/>
</svg>
