<svg width="25" height="25" viewBox="0 0 25 25" fill="none" xmlns="http://www.w3.org/2000/svg">
<path d="M9.99908 18.1495L11.4379 16.7107C11.7919 16.7548 12.1464 16.7774 12.5 16.7774C14.6249 16.7774 16.7804 15.9582 18.6868 14.6064C19.4347 14.0762 20.0942 13.494 20.5742 12.9623C20.7291 12.7908 20.8571 12.633 20.9518 12.5C20.8571 12.3671 20.7291 12.2092 20.5742 12.0377C20.0942 11.506 19.4347 10.9239 18.6868 10.3936C18.5035 10.2636 18.3178 10.1385 18.13 10.0186L19.3352 8.81338C21.1938 10.0321 22.5 11.4811 22.5 12.5C22.5 14.5928 16.9895 18.5 12.5 18.5C11.6869 18.5 10.8403 18.3719 9.99908 18.1495ZM5.66933 16.1896C3.80831 14.9702 2.5 13.5197 2.5 12.5C2.5 10.4072 8.01049 6.50001 12.5 6.50001C13.315 6.50001 14.1637 6.62877 15.0069 6.85207L13.5688 8.29015C13.2126 8.24555 12.8558 8.22257 12.5 8.22257C10.3751 8.22257 8.21956 9.04187 6.31317 10.3936C5.56532 10.9239 4.9058 11.506 4.42582 12.0377C4.27093 12.2092 4.14286 12.3671 4.04819 12.5C4.14286 12.633 4.27093 12.7908 4.42582 12.9623C4.9058 13.494 5.56532 14.0762 6.31317 14.6064C6.49804 14.7375 6.68526 14.8636 6.87457 14.9844L5.66933 16.1896ZM12.1645 15.9841L15.9841 12.1645C15.9946 12.2749 16 12.3868 16 12.5C16 14.433 14.433 16 12.5 16C12.3868 16 12.2749 15.9946 12.1645 15.9841ZM9.01654 12.8424C9.0056 12.7298 9 12.6155 9 12.5C9 10.567 10.567 9.00001 12.5 9.00001C12.6155 9.00001 12.7298 9.00561 12.8424 9.01655L9.01654 12.8424ZM5.00435 19.0103L19.213 4.8016C19.5061 4.50852 19.9813 4.50852 20.2744 4.8016C20.5675 5.09468 20.5675 5.56985 20.2744 5.86294L6.06569 20.0716C5.7726 20.3647 5.29743 20.3647 5.00435 20.0716C4.71127 19.7785 4.71127 19.3034 5.00435 19.0103Z" fill="#1C2E45" fill-opacity="0.6"/>
</svg>
