<svg width="25" height="25" viewBox="0 0 25 25" fill="none" xmlns="http://www.w3.org/2000/svg">
<path d="M12.5 18.5C8.01049 18.5 2.5 14.5928 2.5 12.5C2.5 10.4072 8.01049 6.5 12.5 6.5C16.9895 6.5 22.5 10.4072 22.5 12.5C22.5 14.5928 16.9895 18.5 12.5 18.5ZM4.42582 12.9623C4.9058 13.494 5.56532 14.0761 6.31317 14.6064C8.21956 15.9581 10.3751 16.7774 12.5 16.7774C14.6249 16.7774 16.7804 15.9581 18.6868 14.6064C19.4347 14.0761 20.0942 13.494 20.5742 12.9623C20.7291 12.7908 20.8571 12.6329 20.9518 12.5C20.8571 12.3671 20.7291 12.2092 20.5742 12.0377C20.0942 11.506 19.4347 10.9239 18.6868 10.3936C16.7804 9.04186 14.6249 8.22256 12.5 8.22256C10.3751 8.22256 8.21956 9.04186 6.31317 10.3936C5.56532 10.9239 4.9058 11.506 4.42582 12.0377C4.27093 12.2092 4.14286 12.3671 4.04819 12.5C4.14286 12.6329 4.27093 12.7908 4.42582 12.9623ZM12.5 16C10.567 16 9 14.433 9 12.5C9 10.567 10.567 9 12.5 9C14.433 9 16 10.567 16 12.5C16 14.433 14.433 16 12.5 16ZM12.5 14.2C13.4389 14.2 14.2 13.4389 14.2 12.5C14.2 11.5611 13.4389 10.8 12.5 10.8C11.5611 10.8 10.8 11.5611 10.8 12.5C10.8 13.4389 11.5611 14.2 12.5 14.2Z" fill="#1C2E45" fill-opacity="0.6"/>
</svg>
