<svg width="24" height="24" viewBox="0 0 24 24" fill="none" xmlns="http://www.w3.org/2000/svg">
<path d="M7.91455 11.0727H2.41455V21.0727H7.91455V11.0727Z" fill="#0277BD"/>
<path d="M8.91455 11.5726C8.28942 12.3163 7.91455 12.0726 7.91455 12.0726V19.5726L10.4146 20.5726H18.4146C20.0452 19.8786 20.207 19.3194 19.4146 18.0726C20.7901 17.1518 20.9998 16.6039 20.4146 15.5726C21.9021 14.2267 21.8602 13.5903 20.9146 12.5726C21.6529 10.9193 21.7355 10.1349 19.9146 9.57262H13.9146C15.0763 5.95971 14.8964 3.91218 12.9146 3.0727C12.1278 2.77596 11.8211 2.92903 11.4146 3.57262C11.4146 3.57262 11.5351 5.10377 11.4146 6.07262C11.1233 8.41394 9.53968 10.8289 8.91455 11.5726Z" fill="#ECEFF1"/>
<path d="M7.91455 11.0727H2.41455V21.0727H7.91455V11.0727Z" stroke="black" stroke-linejoin="round"/>
<path d="M8.91455 11.5726C8.28942 12.3163 7.91455 12.0726 7.91455 12.0726V19.5726L10.4146 20.5726H18.4146C20.0452 19.8786 20.207 19.3194 19.4146 18.0726C20.7901 17.1518 20.9998 16.6039 20.4146 15.5726C21.9021 14.2267 21.8602 13.5903 20.9146 12.5726C21.6529 10.9193 21.7355 10.1349 19.9146 9.57262H13.9146C15.0763 5.95971 14.8964 3.91218 12.9146 3.0727C12.1278 2.77596 11.8211 2.92903 11.4146 3.57262C11.4146 3.57262 11.5351 5.10377 11.4146 6.07262C11.1233 8.41394 9.53968 10.8289 8.91455 11.5726Z" stroke="black" stroke-linejoin="round"/>
</svg>
