<svg width="18" height="19" viewBox="0 0 18 19" fill="none" xmlns="http://www.w3.org/2000/svg">
<path d="M15.6044 14.5623C15.1751 14.151 14.7572 13.728 14.3513 13.2936C14.0103 12.9471 13.805 12.695 13.805 12.695L11.2383 11.4695C12.2659 10.304 12.833 8.80378 12.8333 7.25004C12.8333 3.71262 9.955 0.833374 6.41667 0.833374C2.87833 0.833374 0 3.71262 0 7.25004C0 10.7875 2.87833 13.6667 6.41667 13.6667C8.03275 13.6667 9.50583 13.0617 10.6361 12.0726L11.8617 14.6393C11.8617 14.6393 12.1138 14.8446 12.4603 15.1856C12.815 15.5184 13.2816 15.9685 13.7289 16.4387L14.9737 17.7147L15.5274 18.3069L17.4717 16.3626L16.8795 15.809C16.5321 15.468 16.0683 15.0151 15.6044 14.5623V14.5623ZM6.41667 11.8334C3.88942 11.8334 1.83333 9.77729 1.83333 7.25004C1.83333 4.72279 3.88942 2.66671 6.41667 2.66671C8.94392 2.66671 11 4.72279 11 7.25004C11 9.77729 8.94392 11.8334 6.41667 11.8334Z" fill="black"/>
</svg>
