<svg width="18" height="18" viewBox="0 0 18 18" fill="none" xmlns="http://www.w3.org/2000/svg">
<path d="M12.4286 12.5714H12V6.49997C12 3.98032 10.1375 1.89818 7.71429 1.55175V0.857108C7.71429 0.462465 7.39464 0.142822 7 0.142822C6.60536 0.142822 6.28571 0.462465 6.28571 0.857108V1.55175C3.8625 1.89818 2 3.98032 2 6.49997V12.5714H1.57143C1.25536 12.5714 1 12.8268 1 13.1428V13.7143C1 13.7928 1.06429 13.8571 1.14286 13.8571H5C5 14.9607 5.89643 15.8571 7 15.8571C8.10357 15.8571 9 14.9607 9 13.8571H12.8571C12.9357 13.8571 13 13.7928 13 13.7143V13.1428C13 12.8268 12.7446 12.5714 12.4286 12.5714ZM7 14.7143C6.52679 14.7143 6.14286 14.3303 6.14286 13.8571H7.85714C7.85714 14.3303 7.47321 14.7143 7 14.7143ZM3.28571 12.5714V6.49997C3.28571 5.50711 3.67143 4.57497 4.37321 3.87318C5.075 3.17139 6.00714 2.78568 7 2.78568C7.99286 2.78568 8.925 3.17139 9.62679 3.87318C10.3286 4.57497 10.7143 5.50711 10.7143 6.49997V12.5714H3.28571Z" fill="#3A4045"/>
<circle cx="12.5" cy="13.5" r="4" fill="#EAAA34" stroke="#FEFEFE"/>
</svg>
