<svg width="18" height="18" viewBox="0 0 18 18" fill="none" xmlns="http://www.w3.org/2000/svg">
<path d="M17.2141 2.02297H13.4641V0.629505C13.4641 0.533705 13.3838 0.455322 13.2856 0.455322H12.0356C11.9374 0.455322 11.857 0.533705 11.857 0.629505V2.02297H6.14272V0.629505C6.14272 0.533705 6.06236 0.455322 5.96415 0.455322H4.71415C4.61593 0.455322 4.53557 0.533705 4.53557 0.629505V2.02297H0.785575C0.390485 2.02297 0.0712891 2.33432 0.0712891 2.7197V17.1769C0.0712891 17.5623 0.390485 17.8736 0.785575 17.8736H17.2141C17.6092 17.8736 17.9284 17.5623 17.9284 17.1769V2.7197C17.9284 2.33432 17.6092 2.02297 17.2141 2.02297ZM16.3213 16.306H1.67843V8.03229H16.3213V16.306ZM1.67843 6.55173V3.59062H4.53557V4.63572C4.53557 4.73152 4.61593 4.8099 4.71415 4.8099H5.96415C6.06236 4.8099 6.14272 4.73152 6.14272 4.63572V3.59062H11.857V4.63572C11.857 4.73152 11.9374 4.8099 12.0356 4.8099H13.2856C13.3838 4.8099 13.4641 4.73152 13.4641 4.63572V3.59062H16.3213V6.55173H1.67843Z" fill="#3A4045"/>
</svg>
