<svg width="20" height="20" viewBox="0 0 20 20" fill="none" xmlns="http://www.w3.org/2000/svg">
<g clip-path="url(#clip0_2123_276)">
<path d="M11.3615 8.18317C10.8458 8.18317 10.4463 8.5729 10.4463 9.05408C10.4463 9.53526 10.8458 9.925 11.3615 9.925C11.8325 9.925 12.232 9.53526 12.232 9.05408C12.232 8.5729 11.8325 8.18317 11.3615 8.18317ZM5.11147 8.18317C4.59584 8.18317 4.19629 8.5729 4.19629 9.05408C4.19629 9.53526 4.59584 9.925 5.11147 9.925C5.58245 9.925 5.982 9.53526 5.982 9.05408C5.982 8.5729 5.58245 8.18317 5.11147 8.18317Z" fill="#3A4045"/>
<path d="M18.5265 6.52839C17.4938 5.14177 16.0046 4.14267 14.3077 3.69792V3.70009C13.926 3.28641 13.4952 2.90538 13.0131 2.56573C9.35908 -0.0252486 4.22961 0.765108 1.5622 4.32933C-0.587352 7.22513 -0.495834 11.1203 1.69613 13.8876L1.71399 16.7747C1.71399 16.8444 1.72515 16.9141 1.74747 16.9794C1.77555 17.0666 1.82098 17.1476 1.88118 17.2177C1.94138 17.2878 2.01515 17.3457 2.09829 17.3879C2.18142 17.4302 2.27229 17.4561 2.36568 17.464C2.45907 17.472 2.55316 17.462 2.64256 17.4344L5.46845 16.5657C6.21622 16.8248 6.98854 16.9729 7.7564 17.0142L7.74524 17.0229C9.73408 18.436 12.3412 18.8606 14.7318 18.0898L17.5689 18.9912C17.6403 19.013 17.714 19.026 17.7899 19.026C18.185 19.026 18.5042 18.7147 18.5042 18.3293V15.4117C20.4707 12.8077 20.522 9.20864 18.5265 6.52839ZM5.78095 15.0198L5.51309 14.911L3.30327 15.5859L3.28095 13.3215L3.10238 13.1256C1.21399 10.8786 1.08899 7.64099 2.85685 5.26557C5.00863 2.38719 9.13363 1.75142 12.0756 3.82855C15.0265 5.92093 15.6805 9.93803 13.5488 12.799C11.7609 15.1918 8.55997 16.0758 5.78095 15.0198ZM17.0533 14.6497L16.8747 14.8674L16.897 17.1318L14.7095 16.4133L14.4417 16.5222C13.1917 16.975 11.8591 17.012 10.6247 16.6746L10.6202 16.6724C12.3167 16.1649 13.7987 15.1343 14.8435 13.7352C16.5488 11.4425 16.8256 8.56198 15.8345 6.106L15.8479 6.11471C16.3613 6.47396 16.8323 6.92248 17.2318 7.46463C18.8524 9.63321 18.7609 12.5856 17.0533 14.6497Z" fill="#3A4045"/>
<path d="M8.23647 8.18317C7.72084 8.18317 7.32129 8.5729 7.32129 9.05408C7.32129 9.53526 7.72084 9.925 8.23647 9.925C8.70745 9.925 9.107 9.53526 9.107 9.05408C9.107 8.5729 8.70745 8.18317 8.23647 8.18317Z" fill="#3A4045"/>
</g>
<defs>
<clipPath id="clip0_2123_276">
<rect width="20" height="19.5085" fill="white" transform="translate(0 0.410217)"/>
</clipPath>
</defs>
</svg>
