<svg width="23" height="27" viewBox="0 0 23 27" fill="none" xmlns="http://www.w3.org/2000/svg">
<path d="M21.7806 5.06185C21.6825 4.94991 21.5625 4.8594 21.4278 4.79599C21.2932 4.73258 21.147 4.69764 20.9982 4.69334C18.6875 4.63293 15.7636 2.16213 13.8305 1.19254C12.6364 0.595477 11.848 0.201799 11.256 0.0980942C11.1358 0.0805776 11.0136 0.0809169 10.8935 0.099101C10.3015 0.202806 9.51313 0.596483 8.32002 1.19354C6.38687 2.16213 3.46299 4.63293 1.15228 4.69334C1.00343 4.69786 0.857105 4.7329 0.72236 4.79629C0.587615 4.85968 0.467326 4.95006 0.368948 5.06185C0.165035 5.29255 0.0598254 5.59408 0.0759558 5.90156C0.572331 15.9932 4.19195 22.2387 10.5431 25.8683C10.7083 25.962 10.8915 26.0103 11.0737 26.0103C11.256 26.0103 11.4392 25.962 11.6054 25.8683C17.9566 22.2387 21.5752 15.9932 22.0725 5.90156C22.0896 5.59413 21.9847 5.29237 21.7806 5.06185ZM16.7302 9.03084L11.3708 16.9396C11.1785 17.2236 10.8764 17.4118 10.5774 17.4118C10.2773 17.4118 9.94406 17.2477 9.73363 17.0373L5.95594 13.2586C5.83261 13.1348 5.76335 12.9672 5.76335 12.7924C5.76335 12.6177 5.83261 12.45 5.95594 12.3263L6.88929 11.3909C7.01334 11.268 7.18087 11.1991 7.35546 11.1991C7.53005 11.1991 7.69758 11.268 7.82163 11.3909L10.2783 13.8476L14.5464 7.54776C14.6451 7.40359 14.7969 7.30436 14.9686 7.27172C15.1402 7.23909 15.3178 7.2757 15.4626 7.37357L16.555 8.11461C16.6993 8.2132 16.7988 8.36491 16.8316 8.53659C16.8644 8.70827 16.828 8.88596 16.7302 9.03084Z" fill="white"/>
</svg>
